# xmcd CD database file
#
# Track frame offsets:
#	150
#	15442
#	36252
#	55924
#	75060
#	97315
#	119505
#	143155
#	161698
#	178391
#	196986
#
# Disc length: 2936 seconds
#
# Revision: 6
# Processed by: cddbd v1.5.1PL0 Copyright (c) Steve Scherf et al.
# Submitted via: CDex 1.51
#
DISCID=910b760b
DTITLE=Gackt - Rebirth
DYEAR=2001
DGENRE=New Age
TTITLE0=4th・・・
TTITLE1=Secret Garden
TTITLE2=Maria
TTITLE3=uncontrol
TTITLE4=seki-ray?(RR ver.)
TTITLE5=Kalmia
TTITLE6=Sayonara
TTITLE7=Marmalade
TTITLE8=Papa lapped a pap lopped
TTITLE9=seven
TTITLE10=君のためにできること(RR ver.)
EXTD=YEAR: 2001
EXTT0=
EXTT1=
EXTT2=
EXTT3=
EXTT4=
EXTT5=
EXTT6=
EXTT7=
EXTT8=
EXTT9=
EXTT10=
PLAYORDER=
